<svg width="32" height="32" viewBox="0 0 32 32" fill="none" xmlns="http://www.w3.org/2000/svg">
<g clip-path="url(#clip0_26_2283)">
<path d="M16.0139 2.6814C17.0509 2.68146 18.0525 3.05922 18.8312 3.74406L19.0365 3.9374L19.9672 4.86806C20.2226 5.12181 20.5562 5.282 20.9139 5.32273L21.0939 5.3334H22.4272C23.5168 5.33334 24.5652 5.75016 25.3573 6.49838C26.1494 7.24661 26.6252 8.26954 26.6872 9.3574L26.6939 9.60006V10.9334C26.6939 11.2934 26.8165 11.6441 27.0379 11.9241L27.1579 12.0574L28.0872 12.9881C28.8575 13.754 29.3067 14.7849 29.3431 15.8706C29.3795 16.9562 29.0004 18.0149 28.2832 18.8307L28.0899 19.0361L27.1592 19.9667C26.9055 20.2221 26.7453 20.5557 26.7045 20.9134L26.6939 21.0934V22.4267C26.6939 23.5164 26.2771 24.5647 25.5289 25.3568C24.7807 26.1489 23.7577 26.6248 22.6699 26.6867L22.4272 26.6934H21.0939C20.7344 26.6935 20.3854 26.8147 20.1032 27.0374L19.9699 27.1574L19.0392 28.0867C18.2733 28.857 17.2424 29.3062 16.1567 29.3426C15.0711 29.379 14.0124 29 13.1965 28.2827L12.9912 28.0894L12.0605 27.1587C11.8051 26.905 11.4716 26.7448 11.1139 26.7041L10.9339 26.6934H9.60055C8.51092 26.6935 7.46256 26.2766 6.67046 25.5284C5.87835 24.7802 5.40252 23.7573 5.34055 22.6694L5.33388 22.4267V21.0934C5.33376 20.7339 5.21258 20.3849 4.98988 20.1027L4.86988 19.9694L3.94055 19.0387C3.17026 18.2728 2.72111 17.2419 2.68469 16.1562C2.64827 15.0706 3.02732 14.0119 3.74455 13.1961L3.93788 12.9907L4.86855 12.0601C5.1223 11.8047 5.28248 11.4711 5.32321 11.1134L5.33388 10.9334V9.60006L5.34055 9.3574C5.40008 8.31132 5.84245 7.32373 6.58333 6.58285C7.32421 5.84196 8.31181 5.3996 9.35788 5.34006L9.60055 5.3334H10.9339C11.2934 5.33328 11.6423 5.2121 11.9245 4.9894L12.0579 4.8694L12.9885 3.94006C13.385 3.54125 13.8564 3.22474 14.3756 3.00873C14.8948 2.79272 15.4515 2.68148 16.0139 2.6814ZM20.9432 12.3907C20.6932 12.1408 20.3541 12.0003 20.0005 12.0003C19.647 12.0003 19.3079 12.1408 19.0579 12.3907L14.6672 16.7801L12.9432 15.0574L12.8179 14.9467C12.5499 14.7395 12.2131 14.6421 11.8758 14.6742C11.5386 14.7063 11.2263 14.8656 11.0022 15.1197C10.7782 15.3738 10.6592 15.7036 10.6696 16.0422C10.6799 16.3808 10.8187 16.7028 11.0579 16.9427L13.7245 19.6094L13.8499 19.7201C14.1064 19.9191 14.4268 20.0176 14.7508 19.9972C15.0748 19.9769 15.3803 19.839 15.6099 19.6094L20.9432 14.2761L21.0539 14.1507C21.2529 13.8942 21.3514 13.5739 21.3311 13.2498C21.3107 12.9258 21.1728 12.6203 20.9432 12.3907Z" fill="#252240"/>
</g>
<defs>
<clipPath id="clip0_26_2283">
<rect width="32" height="32" fill="white"/>
</clipPath>
</defs>
</svg>
