<svg width="32" height="32" viewBox="0 0 32 32" fill="none" xmlns="http://www.w3.org/2000/svg">
<g clip-path="url(#clip0_26_2261)">
<path d="M5.33341 16C5.68704 16 6.02618 16.1405 6.27622 16.3905C6.52627 16.6406 6.66675 16.9797 6.66675 17.3333C6.66675 17.687 6.52627 18.0261 6.27622 18.2761C6.02618 18.5262 5.68704 18.6667 5.33341 18.6667H4.00008C3.64646 18.6667 3.30732 18.5262 3.05727 18.2761C2.80722 18.0261 2.66675 17.687 2.66675 17.3333C2.66675 16.9797 2.80722 16.6406 3.05727 16.3905C3.30732 16.1405 3.64646 16 4.00008 16H5.33341Z" fill="#252240"/>
<path d="M27.9999 16C28.3535 16 28.6927 16.1405 28.9427 16.3905C29.1928 16.6406 29.3333 16.9797 29.3333 17.3333C29.3333 17.687 29.1928 18.0261 28.9427 18.2761C28.6927 18.5262 28.3535 18.6667 27.9999 18.6667H26.6666C26.313 18.6667 25.9738 18.5262 25.7238 18.2761C25.4737 18.0261 25.3333 17.687 25.3333 17.3333C25.3333 16.9797 25.4737 16.6406 25.7238 16.3905C25.9738 16.1405 26.313 16 26.6666 16H27.9999Z" fill="#252240"/>
<path d="M8.40805 7.85744L9.34139 8.79077C9.58426 9.04224 9.71866 9.37904 9.71562 9.72864C9.71258 10.0782 9.57236 10.4127 9.32514 10.6599C9.07793 10.9071 8.74352 11.0473 8.39392 11.0503C8.04433 11.0534 7.70752 10.919 7.45605 10.6761L6.52272 9.74277C6.27984 9.4913 6.14545 9.1545 6.14849 8.8049C6.15153 8.45531 6.29175 8.12089 6.53896 7.87368C6.78617 7.62647 7.12059 7.48624 7.47018 7.4832C7.81978 7.48017 8.15658 7.61456 8.40805 7.85744Z" fill="#252240"/>
<path d="M25.4769 7.85718C25.7268 8.10722 25.8673 8.44629 25.8673 8.79985C25.8673 9.1534 25.7268 9.49248 25.4769 9.74251L24.5436 10.6758C24.2921 10.9187 23.9553 11.0531 23.6057 11.0501C23.2561 11.047 22.9217 10.9068 22.6745 10.6596C22.4273 10.4124 22.287 10.078 22.284 9.72838C22.2809 9.37878 22.4153 9.04198 22.6582 8.79051L23.5916 7.85718C23.8416 7.60722 24.1807 7.4668 24.5342 7.4668C24.8878 7.4668 25.2268 7.60722 25.4769 7.85718Z" fill="#252240"/>
<path d="M16.0001 4C16.3537 4 16.6928 4.14048 16.9429 4.39052C17.1929 4.64057 17.3334 4.97971 17.3334 5.33333V6.66667C17.3334 7.02029 17.1929 7.35943 16.9429 7.60948C16.6928 7.85952 16.3537 8 16.0001 8C15.6465 8 15.3073 7.85952 15.0573 7.60948C14.8072 7.35943 14.6667 7.02029 14.6667 6.66667V5.33333C14.6667 4.97971 14.8072 4.64057 15.0573 4.39052C15.3073 4.14048 15.6465 4 16.0001 4Z" fill="#252240"/>
<path d="M4.00008 21.3333H28.0001C28.3537 21.3333 28.6928 21.4737 28.9429 21.7238C29.1929 21.9738 29.3334 22.313 29.3334 22.6666C29.3334 23.0202 29.1929 23.3593 28.9429 23.6094C28.6928 23.8594 28.3537 23.9999 28.0001 23.9999H4.00008C3.64646 23.9999 3.30732 23.8594 3.05727 23.6094C2.80722 23.3593 2.66675 23.0202 2.66675 22.6666C2.66675 22.313 2.80722 21.9738 3.05727 21.7238C3.30732 21.4737 3.64646 21.3333 4.00008 21.3333Z" fill="#252240"/>
<path d="M15.9992 10.6667C17.1066 10.6665 18.1965 10.942 19.1707 11.4685C20.1449 11.995 20.9726 12.7559 21.579 13.6824C22.1854 14.609 22.5515 15.6719 22.6442 16.7754C22.7369 17.8789 22.5533 18.988 22.1099 20.0027H9.88854C9.44516 18.988 9.26152 17.8789 9.35421 16.7754C9.44689 15.6719 9.81298 14.609 10.4194 13.6824C11.0259 12.7559 11.8535 11.995 12.8277 11.4685C13.8019 10.942 14.8919 10.6665 15.9992 10.6667Z" fill="#252240"/>
<path d="M16 25.3333C16.3536 25.3333 16.6928 25.4737 16.9428 25.7238C17.1929 25.9738 17.3333 26.313 17.3333 26.6666C17.3333 27.0202 17.1929 27.3593 16.9428 27.6094C16.6928 27.8594 16.3536 27.9999 16 27.9999H9.33333C8.97971 27.9999 8.64057 27.8594 8.39052 27.6094C8.14048 27.3593 8 27.0202 8 26.6666C8 26.313 8.14048 25.9738 8.39052 25.7238C8.64057 25.4737 8.97971 25.3333 9.33333 25.3333H16Z" fill="#252240"/>
<path d="M22.6667 25.3333C23.0203 25.3333 23.3594 25.4737 23.6095 25.7238C23.8595 25.9738 24 26.313 24 26.6666C24 27.0202 23.8595 27.3593 23.6095 27.6094C23.3594 27.8594 23.0203 27.9999 22.6667 27.9999H21.3333C20.9797 27.9999 20.6406 27.8594 20.3905 27.6094C20.1405 27.3593 20 27.0202 20 26.6666C20 26.313 20.1405 25.9738 20.3905 25.7238C20.6406 25.4737 20.9797 25.3333 21.3333 25.3333H22.6667Z" fill="#252240"/>
</g>
<defs>
<clipPath id="clip0_26_2261">
<rect width="32" height="32" fill="white"/>
</clipPath>
</defs>
</svg>
